<svg width="309" height="65" viewBox="0 0 309 65" fill="none" xmlns="http://www.w3.org/2000/svg">
<g clip-path="url(#clip0_23301_2)">
<path d="M32.5 65C50.4493 65 65 50.4493 65 32.5C65 14.5507 50.4493 0 32.5 0C14.5507 0 0 14.5507 0 32.5C0 50.4493 14.5507 65 32.5 65Z" fill="#4793FF"/>
<path d="M65 32.5C65 29.8954 64.6916 27.3631 64.113 24.9358L54.3423 15.1651L53.0241 15.7211L48.3235 11.1622C48.3235 11.1622 46.5495 14.0707 44.5394 12.8753L41.3829 9.7971L41.1963 14.2822L8.78809 46.265L27.0688 64.5457C28.8351 64.8429 30.6492 65 32.5 65C50.4493 65 65 50.4493 65 32.5Z" fill="#424FDD"/>
<path d="M58.3388 29.0023L59.7103 28.1252L58.2388 27.1841C56.6468 26.1659 56.217 24.03 57.2916 22.4755L58.2847 21.0387L56.6808 20.7601C54.8077 20.4347 53.5845 18.6126 53.9927 16.7559L54.3422 15.1659L52.6363 15.5409C50.7905 15.9467 48.9765 14.7403 48.637 12.8812L48.3233 11.163L46.9922 12.1001C45.4377 13.1946 43.2843 12.7711 42.26 11.1694L41.3829 9.79797L40.4418 11.2695C39.4237 12.8615 37.2878 13.2912 35.7333 12.2167L34.2964 11.2235L34.0179 12.8275C33.6925 14.7005 31.8705 15.9237 30.0136 15.5156L28.4237 15.1661L28.7987 16.8719C29.2044 18.7177 27.998 20.5317 26.1389 20.8712L24.4207 21.1849L25.3579 22.516C26.4524 24.0705 26.0288 26.2239 24.4272 27.2482L23.0557 28.1253L24.5271 29.0664C26.1192 30.0846 26.5488 32.2204 25.4743 33.775L24.4812 35.2118L26.0851 35.4904C27.9581 35.8157 29.1813 37.6379 28.7732 39.4946L28.4237 41.0845L30.1296 40.7095C31.9753 40.3038 33.7894 41.5102 34.1288 43.3693L34.4425 45.0876L35.7736 44.1505C37.3282 43.056 39.4816 43.4795 40.5058 45.0812L41.3829 46.4526L42.324 44.9811C43.3422 43.3891 45.4781 42.9594 47.0326 44.0339L48.4695 45.0271L48.748 43.4231C49.0734 41.5501 50.8955 40.3269 52.7522 40.735L54.3422 41.0845L53.9672 39.3787C53.5614 37.5329 54.7678 35.7189 56.6269 35.3794L58.3453 35.0657L57.4081 33.7346C56.3136 32.1801 56.7371 30.0265 58.3388 29.0023Z" fill="#FDBF2D"/>
<path d="M57.4082 33.734L58.3451 35.0645L56.6275 35.378C54.7676 35.7183 53.5615 37.5324 53.9678 39.3783L54.3423 41.0833L52.7529 40.7342C50.8955 40.3254 49.0738 41.5492 48.7475 43.4218L48.4695 45.0265L47.0323 44.0324C45.4784 42.9584 43.3418 43.3875 42.3237 44.9795L41.3829 46.4521V9.79697L42.2602 11.1681C43.2847 12.7702 45.4378 13.1942 46.9917 12.0986L48.3235 11.1617L48.637 12.8807C48.976 14.7393 50.7902 15.9453 52.6361 15.5403L54.3423 15.1645L53.9932 16.7553C53.5844 18.6113 54.8082 20.4344 56.6808 20.7594L58.2842 21.0374L57.2914 22.4745C56.2174 24.0297 56.6465 26.165 58.2385 27.1832L59.7099 28.1239L58.3388 29.0012C56.7366 30.0257 56.3139 32.1788 57.4082 33.734Z" fill="#FD9827"/>
<path d="M41.383 40.9704C48.4777 40.9704 54.2291 35.219 54.2291 28.1243C54.2291 21.0296 48.4777 15.2782 41.383 15.2782C34.2883 15.2782 28.5369 21.0296 28.5369 28.1243C28.5369 35.219 34.2883 40.9704 41.383 40.9704Z" fill="#FFE05F"/>
<path d="M54.2293 28.1239C54.2293 35.2193 48.4771 40.9703 41.3829 40.9703V15.2788C48.4771 15.2788 54.2293 21.0298 54.2293 28.1239Z" fill="#F9CB0D"/>
<path d="M42.5274 32.2419C42.1958 32.2419 41.8694 32.2632 41.5478 32.3006C41.5794 31.9404 41.5966 31.576 41.5966 31.2076C41.5966 24.3886 36.0687 18.8605 29.2495 18.8605C23.5703 18.8605 18.7873 22.6953 17.3468 27.9164C16.8894 27.8562 16.4229 27.8247 15.9491 27.8247C10.0886 27.8247 5.33777 32.5755 5.33777 38.4361C5.33777 44.2966 10.0886 49.0474 15.9491 49.0474H42.5274C47.1682 49.0474 50.9302 45.2853 50.9302 40.6447C50.9302 36.0039 47.1682 32.2419 42.5274 32.2419Z" fill="white"/>
<path d="M50.9302 40.6435C50.9302 45.2846 47.1684 49.0466 42.5272 49.0466H28.134V18.9097C28.5016 18.8759 28.8735 18.8595 29.2498 18.8595C36.0691 18.8595 41.5969 24.3873 41.5969 31.2066C41.5969 31.5753 41.5795 31.9395 41.5478 32.2996C41.8696 32.2625 42.1956 32.2406 42.5272 32.2406C47.1684 32.2406 50.9302 36.0035 50.9302 40.6435Z" fill="#DAEFEC"/>
</g>
<path d="M95.45 41.3C94.1 41.3 92.8417 41.0833 91.675 40.65C90.525 40.2 89.525 39.5667 88.675 38.75C87.825 37.9333 87.1583 36.975 86.675 35.875C86.2083 34.775 85.975 33.5667 85.975 32.25C85.975 30.9333 86.2083 29.725 86.675 28.625C87.1583 27.525 87.825 26.5667 88.675 25.75C89.5417 24.9333 90.55 24.3083 91.7 23.875C92.85 23.425 94.1083 23.2 95.475 23.2C96.9917 23.2 98.3583 23.4667 99.575 24C100.808 24.5167 101.842 25.2833 102.675 26.3L100.075 28.7C99.475 28.0167 98.8083 27.5083 98.075 27.175C97.3417 26.825 96.5417 26.65 95.675 26.65C94.8583 26.65 94.1083 26.7833 93.425 27.05C92.7417 27.3167 92.15 27.7 91.65 28.2C91.15 28.7 90.7583 29.2917 90.475 29.975C90.2083 30.6583 90.075 31.4167 90.075 32.25C90.075 33.0833 90.2083 33.8417 90.475 34.525C90.7583 35.2083 91.15 35.8 91.65 36.3C92.15 36.8 92.7417 37.1833 93.425 37.45C94.1083 37.7167 94.8583 37.85 95.675 37.85C96.5417 37.85 97.3417 37.6833 98.075 37.35C98.8083 37 99.475 36.475 100.075 35.775L102.675 38.175C101.842 39.1917 100.808 39.9667 99.575 40.5C98.3583 41.0333 96.9833 41.3 95.45 41.3ZM109.613 41V33.85L110.538 36.3L102.838 23.5H107.138L113.038 33.325H110.563L116.488 23.5H120.463L112.763 36.3L113.663 33.85V41H109.613ZM122.012 41V23.5H130.562C132.762 23.5 134.412 23.9167 135.512 24.75C136.628 25.5833 137.187 26.6833 137.187 28.05C137.187 28.9667 136.962 29.7667 136.512 30.45C136.062 31.1167 135.445 31.6333 134.662 32C133.878 32.3667 132.978 32.55 131.962 32.55L132.437 31.525C133.537 31.525 134.512 31.7083 135.362 32.075C136.212 32.425 136.87 32.95 137.337 33.65C137.82 34.35 138.062 35.2083 138.062 36.225C138.062 37.725 137.47 38.9 136.287 39.75C135.103 40.5833 133.362 41 131.062 41H122.012ZM126.037 37.95H130.762C131.812 37.95 132.603 37.7833 133.137 37.45C133.687 37.1 133.962 36.55 133.962 35.8C133.962 35.0667 133.687 34.525 133.137 34.175C132.603 33.8083 131.812 33.625 130.762 33.625H125.737V30.675H130.062C131.045 30.675 131.795 30.5083 132.312 30.175C132.845 29.825 133.112 29.3 133.112 28.6C133.112 27.9167 132.845 27.4083 132.312 27.075C131.795 26.725 131.045 26.55 130.062 26.55H126.037V37.95ZM144.853 30.55H153.278V33.7H144.853V30.55ZM145.153 37.75H154.678V41H141.128V23.5H154.353V26.75H145.153V37.75ZM157.9 41V23.5H165.475C167.042 23.5 168.392 23.7583 169.525 24.275C170.659 24.775 171.534 25.5 172.15 26.45C172.767 27.4 173.075 28.5333 173.075 29.85C173.075 31.15 172.767 32.275 172.15 33.225C171.534 34.1583 170.659 34.875 169.525 35.375C168.392 35.875 167.042 36.125 165.475 36.125H160.15L161.95 34.35V41H157.9ZM169.025 41L164.65 34.65H168.975L173.4 41H169.025ZM161.95 34.8L160.15 32.9H165.25C166.5 32.9 167.434 32.6333 168.05 32.1C168.667 31.55 168.975 30.8 168.975 29.85C168.975 28.8833 168.667 28.1333 168.05 27.6C167.434 27.0667 166.5 26.8 165.25 26.8H160.15L161.95 24.875V34.8ZM180.484 41L174.759 23.5H178.959L183.934 39H181.834L187.034 23.5H190.784L195.784 39H193.759L198.859 23.5H202.734L197.009 41H192.659L188.234 27.4H189.384L184.834 41H180.484ZM208.72 30.55H217.145V33.7H208.72V30.55ZM209.02 37.75H218.545V41H204.995V23.5H218.22V26.75H209.02V37.75ZM219.467 41L227.267 23.5H231.267L239.092 41H234.842L228.442 25.55H230.042L223.617 41H219.467ZM223.367 37.25L224.442 34.175H233.442L234.542 37.25H223.367ZM243.654 41V26.8H238.054V23.5H253.304V26.8H247.704V41H243.654ZM267.483 23.5H271.533V41H267.483V23.5ZM259.533 41H255.483V23.5H259.533V41ZM267.783 33.825H259.233V30.4H267.783V33.825ZM279.399 30.55H287.824V33.7H279.399V30.55ZM279.699 37.75H289.224V41H275.674V23.5H288.899V26.75H279.699V37.75ZM292.446 41V23.5H300.021C301.588 23.5 302.938 23.7583 304.071 24.275C305.204 24.775 306.079 25.5 306.696 26.45C307.313 27.4 307.621 28.5333 307.621 29.85C307.621 31.15 307.313 32.275 306.696 33.225C306.079 34.1583 305.204 34.875 304.071 35.375C302.938 35.875 301.588 36.125 300.021 36.125H294.696L296.496 34.35V41H292.446ZM303.571 41L299.196 34.65H303.521L307.946 41H303.571ZM296.496 34.8L294.696 32.9H299.796C301.046 32.9 301.979 32.6333 302.596 32.1C303.213 31.55 303.521 30.8 303.521 29.85C303.521 28.8833 303.213 28.1333 302.596 27.6C301.979 27.0667 301.046 26.8 299.796 26.8H294.696L296.496 24.875V34.8Z" fill="#4793FF"/>
<defs>
<clipPath id="clip0_23301_2">
<rect width="65" height="65" fill="white"/>
</clipPath>
</defs>
</svg>
